<svg width="1377" height="705" viewBox="0 0 1377 705" fill="none" xmlns="http://www.w3.org/2000/svg">
<g id="GerardTowersPlan">
<g id="LABELS">
<path id="H" d="M113.5 152V128.727H119.818V137.818H128.182V128.727H134.5V152H128.182V142.909H119.818V152H113.5Z" fill="black"/>
<path id="J" d="M278.091 128.727H284.318V144.682C284.311 146.197 283.928 147.53 283.17 148.682C282.42 149.826 281.383 150.72 280.057 151.364C278.739 152 277.22 152.318 275.5 152.318C274.008 152.318 272.644 152.061 271.409 151.545C270.174 151.023 269.189 150.205 268.455 149.091C267.72 147.97 267.356 146.515 267.364 144.727H273.682C273.705 145.311 273.803 145.803 273.977 146.205C274.159 146.606 274.409 146.909 274.727 147.114C275.053 147.311 275.447 147.409 275.909 147.409C276.379 147.409 276.773 147.307 277.091 147.102C277.417 146.898 277.663 146.595 277.83 146.193C277.996 145.784 278.083 145.28 278.091 144.682V128.727Z" fill="black"/>
<path id="K" d="M268.5 283V259.727H274.818V269.136H275.136L282.136 259.727H289.5L281.636 270.091L289.682 283H282.136L276.909 274.273L274.818 277V283H268.5Z" fill="black"/>
<path id="G" d="M128.614 267.409C128.515 267.008 128.36 266.655 128.148 266.352C127.936 266.042 127.67 265.78 127.352 265.568C127.042 265.348 126.678 265.186 126.261 265.08C125.852 264.966 125.402 264.909 124.909 264.909C123.848 264.909 122.943 265.163 122.193 265.67C121.451 266.178 120.883 266.909 120.489 267.864C120.102 268.818 119.909 269.97 119.909 271.318C119.909 272.682 120.095 273.848 120.466 274.818C120.837 275.788 121.39 276.53 122.125 277.045C122.86 277.561 123.773 277.818 124.864 277.818C125.826 277.818 126.625 277.678 127.261 277.398C127.905 277.117 128.386 276.72 128.705 276.205C129.023 275.689 129.182 275.083 129.182 274.386L130.273 274.5H124.955V270H135.273V273.227C135.273 275.348 134.822 277.163 133.92 278.67C133.027 280.17 131.792 281.322 130.216 282.125C128.648 282.92 126.848 283.318 124.818 283.318C122.553 283.318 120.564 282.837 118.852 281.875C117.14 280.913 115.803 279.542 114.841 277.761C113.886 275.981 113.409 273.864 113.409 271.409C113.409 269.485 113.701 267.78 114.284 266.295C114.875 264.811 115.693 263.557 116.739 262.534C117.784 261.504 118.992 260.727 120.364 260.205C121.735 259.674 123.205 259.409 124.773 259.409C126.152 259.409 127.432 259.606 128.614 260C129.803 260.386 130.852 260.939 131.761 261.659C132.678 262.371 133.417 263.216 133.977 264.193C134.538 265.17 134.879 266.242 135 267.409H128.614Z" fill="black"/>
<path id="F" d="M113.5 364V340.727H129.864V345.818H119.818V349.818H128.864V354.909H119.818V364H113.5Z" fill="black"/>
<path id="E" d="M113.5 451V427.727H130.273V432.818H119.818V436.818H129.409V441.909H119.818V445.909H130.227V451H113.5Z" fill="black"/>
<path id="D" d="M122.455 582H113.5V558.727H122.364C124.758 558.727 126.826 559.193 128.568 560.125C130.318 561.049 131.667 562.383 132.614 564.125C133.568 565.86 134.045 567.939 134.045 570.364C134.045 572.788 133.572 574.871 132.625 576.614C131.678 578.348 130.337 579.682 128.602 580.614C126.867 581.538 124.818 582 122.455 582ZM119.818 576.636H122.227C123.379 576.636 124.36 576.451 125.17 576.08C125.989 575.708 126.61 575.068 127.034 574.159C127.466 573.25 127.682 571.985 127.682 570.364C127.682 568.742 127.462 567.477 127.023 566.568C126.591 565.659 125.955 565.019 125.114 564.648C124.28 564.277 123.258 564.091 122.045 564.091H119.818V576.636Z" fill="black"/>
<path id="C" d="M290.227 567.455H283.818C283.773 566.924 283.652 566.443 283.455 566.011C283.265 565.58 283 565.208 282.659 564.898C282.326 564.58 281.92 564.337 281.443 564.17C280.966 563.996 280.424 563.909 279.818 563.909C278.758 563.909 277.86 564.167 277.125 564.682C276.398 565.197 275.845 565.936 275.466 566.898C275.095 567.86 274.909 569.015 274.909 570.364C274.909 571.788 275.098 572.981 275.477 573.943C275.864 574.898 276.42 575.617 277.148 576.102C277.875 576.58 278.75 576.818 279.773 576.818C280.356 576.818 280.879 576.746 281.341 576.602C281.803 576.451 282.205 576.235 282.545 575.955C282.886 575.674 283.163 575.337 283.375 574.943C283.595 574.542 283.742 574.091 283.818 573.591L290.227 573.636C290.152 574.621 289.875 575.625 289.398 576.648C288.92 577.663 288.242 578.602 287.364 579.466C286.492 580.322 285.413 581.011 284.125 581.534C282.837 582.057 281.341 582.318 279.636 582.318C277.5 582.318 275.583 581.86 273.886 580.943C272.197 580.027 270.86 578.678 269.875 576.898C268.898 575.117 268.409 572.939 268.409 570.364C268.409 567.773 268.909 565.591 269.909 563.818C270.909 562.038 272.258 560.693 273.955 559.784C275.652 558.867 277.545 558.409 279.636 558.409C281.106 558.409 282.458 558.61 283.693 559.011C284.928 559.413 286.011 560 286.943 560.773C287.875 561.538 288.625 562.481 289.193 563.602C289.761 564.723 290.106 566.008 290.227 567.455Z" fill="black"/>
<path id="GERARD PL" d="M432.415 687.119C432.273 686.659 432.077 686.247 431.827 685.884C431.582 685.514 431.287 685.199 430.94 684.938C430.599 684.676 430.207 684.48 429.764 684.349C429.321 684.213 428.838 684.145 428.315 684.145C427.378 684.145 426.543 684.381 425.81 684.852C425.077 685.324 424.5 686.017 424.08 686.932C423.665 687.841 423.457 688.949 423.457 690.256C423.457 691.574 423.665 692.69 424.08 693.605C424.494 694.52 425.071 695.216 425.81 695.693C426.548 696.165 427.406 696.401 428.384 696.401C429.27 696.401 430.037 696.23 430.685 695.889C431.338 695.548 431.841 695.065 432.193 694.44C432.545 693.81 432.722 693.071 432.722 692.224L433.438 692.335H428.699V689.864H435.781V691.96C435.781 693.455 435.463 694.747 434.827 695.838C434.19 696.929 433.315 697.77 432.202 698.361C431.088 698.946 429.81 699.239 428.366 699.239C426.759 699.239 425.347 698.878 424.131 698.156C422.92 697.429 421.974 696.398 421.293 695.062C420.616 693.722 420.278 692.131 420.278 690.29C420.278 688.881 420.477 687.622 420.875 686.514C421.278 685.406 421.841 684.466 422.562 683.693C423.284 682.915 424.131 682.324 425.102 681.92C426.074 681.511 427.131 681.307 428.273 681.307C429.239 681.307 430.139 681.449 430.974 681.733C431.81 682.011 432.551 682.409 433.199 682.926C433.852 683.443 434.389 684.057 434.81 684.767C435.23 685.477 435.506 686.261 435.636 687.119H432.415ZM438.839 699V681.545H450.191V684.196H442.001V688.935H449.603V691.585H442.001V696.349H450.259V699H438.839ZM453.417 699V681.545H459.962C461.303 681.545 462.428 681.778 463.337 682.244C464.252 682.71 464.942 683.364 465.408 684.205C465.88 685.04 466.116 686.014 466.116 687.128C466.116 688.247 465.877 689.219 465.4 690.043C464.928 690.861 464.232 691.494 463.312 691.943C462.391 692.386 461.261 692.608 459.92 692.608H455.258V689.983H459.494C460.278 689.983 460.92 689.875 461.42 689.659C461.92 689.437 462.289 689.116 462.528 688.696C462.772 688.27 462.894 687.747 462.894 687.128C462.894 686.509 462.772 685.98 462.528 685.543C462.283 685.099 461.911 684.764 461.411 684.537C460.911 684.304 460.266 684.188 459.477 684.188H456.579V699H453.417ZM462.434 691.091L466.755 699H463.227L458.982 691.091H462.434ZM471.268 699H467.893L474.038 681.545H477.941L484.094 699H480.719L476.058 685.125H475.921L471.268 699ZM471.379 692.156H480.583V694.696H471.379V692.156ZM486.393 699V681.545H492.939C494.28 681.545 495.405 681.778 496.314 682.244C497.229 682.71 497.919 683.364 498.385 684.205C498.857 685.04 499.092 686.014 499.092 687.128C499.092 688.247 498.854 689.219 498.376 690.043C497.905 690.861 497.209 691.494 496.288 691.943C495.368 692.386 494.237 692.608 492.896 692.608H488.234V689.983H492.47C493.254 689.983 493.896 689.875 494.396 689.659C494.896 689.437 495.266 689.116 495.504 688.696C495.749 688.27 495.871 687.747 495.871 687.128C495.871 686.509 495.749 685.98 495.504 685.543C495.26 685.099 494.888 684.764 494.388 684.537C493.888 684.304 493.243 684.188 492.453 684.188H489.555V699H486.393ZM495.411 691.091L499.732 699H496.203L491.959 691.091H495.411ZM507.918 699H502.003V681.545H508.037C509.77 681.545 511.259 681.895 512.503 682.594C513.753 683.287 514.713 684.284 515.384 685.585C516.054 686.886 516.389 688.443 516.389 690.256C516.389 692.074 516.051 693.636 515.375 694.943C514.705 696.25 513.736 697.253 512.469 697.952C511.207 698.651 509.69 699 507.918 699ZM505.165 696.264H507.764C508.98 696.264 509.994 696.043 510.807 695.599C511.619 695.151 512.23 694.483 512.639 693.597C513.048 692.705 513.253 691.591 513.253 690.256C513.253 688.92 513.048 687.812 512.639 686.932C512.23 686.045 511.625 685.384 510.824 684.946C510.028 684.503 509.04 684.281 507.858 684.281H505.165V696.264ZM525.347 699V681.545H531.892C533.233 681.545 534.358 681.795 535.267 682.295C536.182 682.795 536.872 683.483 537.338 684.358C537.81 685.227 538.045 686.216 538.045 687.324C538.045 688.443 537.81 689.437 537.338 690.307C536.866 691.176 536.17 691.861 535.25 692.361C534.33 692.855 533.196 693.102 531.849 693.102H527.511V690.503H531.423C532.207 690.503 532.849 690.366 533.349 690.094C533.849 689.821 534.219 689.446 534.457 688.969C534.702 688.491 534.824 687.943 534.824 687.324C534.824 686.705 534.702 686.159 534.457 685.688C534.219 685.216 533.847 684.849 533.341 684.588C532.841 684.321 532.196 684.188 531.406 684.188H528.509V699H525.347ZM540.792 699V681.545H543.954V696.349H551.641V699H540.792Z" fill="black"/>
<path id="AUSTIN ST" d="M424.963 23H421.588L427.733 5.54545H431.636L437.79 23H434.415L429.753 9.125H429.616L424.963 23ZM425.074 16.1562H434.278V18.696H425.074V16.1562ZM451.092 5.54545H454.254V16.9489C454.254 18.1989 453.958 19.2983 453.367 20.2472C452.782 21.196 451.958 21.9375 450.896 22.4716C449.833 23 448.592 23.2642 447.171 23.2642C445.745 23.2642 444.501 23 443.438 22.4716C442.376 21.9375 441.552 21.196 440.967 20.2472C440.381 19.2983 440.089 18.1989 440.089 16.9489V5.54545H443.251V16.6847C443.251 17.4119 443.41 18.0597 443.728 18.6278C444.052 19.196 444.506 19.642 445.092 19.9659C445.677 20.2841 446.37 20.4432 447.171 20.4432C447.972 20.4432 448.665 20.2841 449.251 19.9659C449.842 19.642 450.296 19.196 450.614 18.6278C450.933 18.0597 451.092 17.4119 451.092 16.6847V5.54545ZM467.176 10.3438C467.097 9.59943 466.761 9.01989 466.17 8.60511C465.585 8.19034 464.824 7.98295 463.886 7.98295C463.227 7.98295 462.662 8.08239 462.19 8.28125C461.719 8.48011 461.358 8.75 461.108 9.09091C460.858 9.43182 460.73 9.82102 460.724 10.2585C460.724 10.6222 460.807 10.9375 460.972 11.2045C461.142 11.4716 461.372 11.6989 461.662 11.8864C461.952 12.0682 462.273 12.2216 462.625 12.3466C462.977 12.4716 463.332 12.5767 463.69 12.6619L465.327 13.071C465.986 13.2244 466.619 13.4318 467.227 13.6932C467.841 13.9545 468.389 14.2841 468.872 14.6818C469.361 15.0795 469.747 15.5597 470.031 16.1222C470.315 16.6847 470.457 17.3437 470.457 18.0994C470.457 19.1222 470.196 20.0227 469.673 20.8011C469.151 21.5739 468.395 22.179 467.406 22.6165C466.423 23.0483 465.233 23.2642 463.835 23.2642C462.477 23.2642 461.298 23.054 460.298 22.6335C459.304 22.2131 458.526 21.5994 457.963 20.7926C457.406 19.9858 457.105 19.0028 457.06 17.8438H460.17C460.216 18.4517 460.403 18.9574 460.733 19.3608C461.063 19.7642 461.491 20.0653 462.02 20.2642C462.554 20.4631 463.151 20.5625 463.81 20.5625C464.497 20.5625 465.099 20.4602 465.616 20.2557C466.139 20.0455 466.548 19.7557 466.844 19.3864C467.139 19.0114 467.29 18.5739 467.295 18.0739C467.29 17.6193 467.156 17.2443 466.895 16.9489C466.634 16.6477 466.267 16.3977 465.795 16.1989C465.33 15.9943 464.784 15.8125 464.159 15.6534L462.173 15.142C460.736 14.7727 459.599 14.2131 458.764 13.4631C457.935 12.7074 457.52 11.7045 457.52 10.4545C457.52 9.42614 457.798 8.52557 458.355 7.75284C458.918 6.98011 459.682 6.38068 460.648 5.95454C461.614 5.52273 462.707 5.30682 463.929 5.30682C465.168 5.30682 466.253 5.52273 467.185 5.95454C468.122 6.38068 468.858 6.97443 469.392 7.73579C469.926 8.49148 470.202 9.3608 470.219 10.3438H467.176ZM472.509 8.19602V5.54545H486.435V8.19602H481.04V23H477.904V8.19602H472.509ZM492.282 5.54545V23H489.12V5.54545H492.282ZM510.05 5.54545V23H507.237L499.013 11.1108H498.868V23H495.706V5.54545H498.536L506.751 17.4432H506.905V5.54545H510.05ZM528.934 10.3438C528.854 9.59943 528.519 9.01989 527.928 8.60511C527.343 8.19034 526.582 7.98295 525.644 7.98295C524.985 7.98295 524.42 8.08239 523.948 8.28125C523.477 8.48011 523.116 8.75 522.866 9.09091C522.616 9.43182 522.488 9.82102 522.482 10.2585C522.482 10.6222 522.565 10.9375 522.729 11.2045C522.9 11.4716 523.13 11.6989 523.42 11.8864C523.71 12.0682 524.031 12.2216 524.383 12.3466C524.735 12.4716 525.09 12.5767 525.448 12.6619L527.085 13.071C527.744 13.2244 528.377 13.4318 528.985 13.6932C529.599 13.9545 530.147 14.2841 530.63 14.6818C531.119 15.0795 531.505 15.5597 531.789 16.1222C532.073 16.6847 532.215 17.3437 532.215 18.0994C532.215 19.1222 531.954 20.0227 531.431 20.8011C530.908 21.5739 530.153 22.179 529.164 22.6165C528.181 23.0483 526.991 23.2642 525.593 23.2642C524.235 23.2642 523.056 23.054 522.056 22.6335C521.062 22.2131 520.283 21.5994 519.721 20.7926C519.164 19.9858 518.863 19.0028 518.817 17.8438H521.928C521.974 18.4517 522.161 18.9574 522.491 19.3608C522.82 19.7642 523.249 20.0653 523.778 20.2642C524.312 20.4631 524.908 20.5625 525.567 20.5625C526.255 20.5625 526.857 20.4602 527.374 20.2557C527.897 20.0455 528.306 19.7557 528.602 19.3864C528.897 19.0114 529.048 18.5739 529.053 18.0739C529.048 17.6193 528.914 17.2443 528.653 16.9489C528.391 16.6477 528.025 16.3977 527.553 16.1989C527.087 15.9943 526.542 15.8125 525.917 15.6534L523.931 15.142C522.494 14.7727 521.357 14.2131 520.522 13.4631C519.692 12.7074 519.278 11.7045 519.278 10.4545C519.278 9.42614 519.556 8.52557 520.113 7.75284C520.675 6.98011 521.44 6.38068 522.406 5.95454C523.371 5.52273 524.465 5.30682 525.687 5.30682C526.925 5.30682 528.011 5.52273 528.942 5.95454C529.88 6.38068 530.616 6.97443 531.15 7.73579C531.684 8.49148 531.96 9.3608 531.977 10.3438H528.934ZM534.267 8.19602V5.54545H548.193V8.19602H542.798V23H539.662V8.19602H534.267Z" fill="black"/>
<path id="YELLOWSTONE BLVD" d="M1045.05 654.581L1048.21 652.918L1055.59 657.762L1055.74 657.682L1055.92 648.86L1059.08 647.197L1058.56 659.838L1061.59 665.6L1058.8 667.069L1055.77 661.307L1045.05 654.581ZM1069.19 661.599L1061.06 646.154L1071.11 640.866L1072.34 643.211L1065.09 647.026L1067.3 651.22L1074.03 647.678L1075.26 650.024L1068.53 653.565L1070.75 657.781L1078.06 653.934L1079.3 656.279L1069.19 661.599ZM1082.09 654.808L1073.96 639.363L1076.76 637.89L1083.65 650.99L1090.46 647.409L1091.69 649.754L1082.09 654.808ZM1094.12 648.476L1085.99 633.031L1088.79 631.558L1095.68 644.658L1102.48 641.077L1103.72 643.422L1094.12 648.476ZM1115.28 627.473C1116.16 629.137 1116.6 630.726 1116.6 632.241C1116.6 633.748 1116.23 635.098 1115.49 636.29C1114.76 637.48 1113.71 638.43 1112.36 639.142C1111.01 639.854 1109.63 640.178 1108.23 640.113C1106.83 640.041 1105.51 639.578 1104.26 638.725C1103.02 637.864 1101.96 636.604 1101.09 634.944C1100.21 633.28 1099.77 631.695 1099.77 630.188C1099.77 628.673 1100.14 627.321 1100.87 626.131C1101.61 624.939 1102.66 623.987 1104.01 623.275C1105.36 622.563 1106.74 622.241 1108.13 622.308C1109.53 622.373 1110.86 622.835 1112.1 623.696C1113.35 624.55 1114.41 625.809 1115.28 627.473ZM1112.47 628.954C1111.85 627.782 1111.15 626.891 1110.36 626.28C1109.57 625.661 1108.75 625.314 1107.89 625.241C1107.02 625.162 1106.17 625.344 1105.33 625.786C1104.49 626.228 1103.86 626.827 1103.44 627.583C1103.01 628.334 1102.83 629.211 1102.88 630.214C1102.95 631.209 1103.29 632.292 1103.9 633.464C1104.52 634.635 1105.22 635.53 1106.01 636.149C1106.8 636.76 1107.63 637.105 1108.49 637.184C1109.35 637.257 1110.2 637.073 1111.04 636.631C1111.88 636.189 1112.51 635.592 1112.94 634.841C1113.36 634.085 1113.54 633.21 1113.48 632.215C1113.42 631.212 1113.09 630.125 1112.47 628.954ZM1124.85 632.299L1112.36 619.149L1115.37 617.565L1124.13 627.45L1124.27 627.374L1121.27 614.46L1124 613.019L1132.96 622.808L1133.1 622.737L1129.9 609.914L1132.91 608.33L1136.68 626.07L1133.92 627.523L1125.12 618.314L1125 618.377L1127.61 630.846L1124.85 632.299ZM1145.38 607.191C1144.96 606.569 1144.39 606.213 1143.68 606.121C1142.96 606.026 1142.19 606.198 1141.36 606.634C1140.78 606.941 1140.33 607.293 1140 607.688C1139.68 608.084 1139.48 608.491 1139.42 608.909C1139.36 609.327 1139.43 609.731 1139.63 610.121C1139.8 610.443 1140.02 610.683 1140.29 610.843C1140.56 611 1140.87 611.094 1141.21 611.125C1141.56 611.15 1141.91 611.137 1142.28 611.083C1142.65 611.03 1143.01 610.957 1143.37 610.866L1145.01 610.466C1145.66 610.294 1146.32 610.183 1146.98 610.131C1147.65 610.076 1148.28 610.113 1148.9 610.24C1149.51 610.364 1150.08 610.609 1150.59 610.974C1151.11 611.34 1151.54 611.857 1151.89 612.525C1152.37 613.43 1152.56 614.349 1152.46 615.281C1152.35 616.208 1151.97 617.096 1151.3 617.944C1150.63 618.784 1149.67 619.529 1148.44 620.18C1147.24 620.813 1146.1 621.176 1145.01 621.27C1143.94 621.361 1142.96 621.18 1142.09 620.728C1141.22 620.274 1140.5 619.544 1139.92 618.54L1142.67 617.091C1142.99 617.608 1143.39 617.968 1143.87 618.171C1144.35 618.375 1144.87 618.441 1145.43 618.371C1146 618.298 1146.57 618.108 1147.16 617.801C1147.77 617.481 1148.25 617.11 1148.61 616.688C1148.98 616.259 1149.2 615.812 1149.29 615.347C1149.38 614.878 1149.31 614.421 1149.08 613.976C1148.87 613.576 1148.57 613.306 1148.2 613.167C1147.83 613.022 1147.39 612.971 1146.88 613.015C1146.37 613.051 1145.81 613.144 1145.18 613.295L1143.18 613.767C1141.74 614.11 1140.47 614.144 1139.39 613.87C1138.3 613.587 1137.46 612.893 1136.88 611.787C1136.4 610.877 1136.23 609.95 1136.36 609.007C1136.5 608.061 1136.9 607.175 1137.55 606.348C1138.21 605.516 1139.08 604.815 1140.16 604.246C1141.25 603.669 1142.31 603.355 1143.34 603.303C1144.37 603.243 1145.29 603.426 1146.12 603.851C1146.95 604.271 1147.6 604.912 1148.07 605.774L1145.38 607.191ZM1149.09 602.806L1147.86 600.461L1160.18 593.974L1161.42 596.319L1156.64 598.832L1163.54 611.932L1160.76 613.393L1153.87 600.293L1149.09 602.806ZM1179.74 593.541C1180.62 595.205 1181.05 596.794 1181.06 598.309C1181.06 599.816 1180.69 601.166 1179.95 602.358C1179.22 603.548 1178.17 604.498 1176.82 605.21C1175.47 605.922 1174.09 606.246 1172.69 606.181C1171.29 606.109 1169.97 605.646 1168.72 604.793C1167.48 603.932 1166.42 602.672 1165.55 601.012C1164.67 599.348 1164.23 597.763 1164.23 596.256C1164.23 594.741 1164.59 593.389 1165.33 592.199C1166.07 591.007 1167.11 590.055 1168.47 589.343C1169.82 588.631 1171.19 588.309 1172.59 588.376C1173.99 588.441 1175.32 588.904 1176.56 589.765C1177.8 590.618 1178.86 591.877 1179.74 593.541ZM1176.93 595.022C1176.31 593.85 1175.61 592.959 1174.82 592.348C1174.03 591.729 1173.2 591.382 1172.34 591.309C1171.48 591.23 1170.63 591.412 1169.79 591.854C1168.95 592.296 1168.32 592.895 1167.89 593.651C1167.47 594.402 1167.28 595.279 1167.34 596.282C1167.4 597.277 1167.74 598.36 1168.36 599.532C1168.98 600.703 1169.68 601.598 1170.47 602.217C1171.26 602.828 1172.08 603.173 1172.95 603.252C1173.81 603.325 1174.66 603.141 1175.5 602.699C1176.34 602.257 1176.97 601.66 1177.4 600.909C1177.82 600.153 1178 599.278 1177.94 598.283C1177.88 597.28 1177.54 596.193 1176.93 595.022ZM1191.01 577.744L1199.14 593.189L1196.65 594.499L1183.84 587.81L1183.71 587.877L1189.25 598.398L1186.45 599.871L1178.32 584.426L1180.82 583.108L1193.64 589.809L1193.77 589.737L1188.23 579.209L1191.01 577.744ZM1202.19 591.584L1194.06 576.139L1204.11 570.851L1205.34 573.197L1198.09 577.012L1200.3 581.205L1207.03 577.664L1208.26 580.009L1201.54 583.55L1203.76 587.766L1211.06 583.919L1212.3 586.265L1202.19 591.584ZM1220.36 582.021L1212.23 566.575L1218.14 563.463C1219.26 562.875 1220.28 562.563 1221.2 562.526C1222.13 562.481 1222.93 562.664 1223.62 563.074C1224.31 563.481 1224.86 564.067 1225.26 564.831C1225.59 565.46 1225.75 566.061 1225.74 566.636C1225.74 567.205 1225.6 567.735 1225.34 568.226C1225.08 568.717 1224.73 569.155 1224.29 569.541L1224.37 569.692C1224.93 569.433 1225.55 569.325 1226.21 569.367C1226.88 569.401 1227.52 569.61 1228.13 569.994C1228.74 570.378 1229.26 570.962 1229.67 571.746C1230.09 572.546 1230.27 573.366 1230.22 574.209C1230.17 575.046 1229.85 575.853 1229.26 576.631C1228.68 577.408 1227.79 578.107 1226.61 578.729L1220.36 582.021ZM1221.93 578.21L1224.94 576.626C1225.95 576.091 1226.58 575.512 1226.82 574.89C1227.07 574.259 1227.03 573.638 1226.71 573.024C1226.47 572.567 1226.14 572.214 1225.72 571.966C1225.3 571.713 1224.82 571.591 1224.29 571.599C1223.76 571.603 1223.21 571.757 1222.63 572.061L1219.54 573.685L1221.93 578.21ZM1218.48 571.671L1221.25 570.214C1221.74 569.96 1222.12 569.643 1222.42 569.263C1222.71 568.879 1222.88 568.465 1222.93 568.021C1222.98 567.57 1222.89 567.119 1222.65 566.666C1222.34 566.068 1221.86 565.686 1221.24 565.522C1220.62 565.354 1219.89 565.487 1219.07 565.921L1216.24 567.41L1218.48 571.671ZM1234.32 574.673L1226.19 559.228L1228.98 557.755L1235.88 570.855L1242.68 567.274L1243.92 569.619L1234.32 574.673ZM1238.68 552.648L1249.1 562.689L1249.26 562.606L1246.88 548.337L1249.95 546.717L1252.64 565.029L1249.18 566.847L1235.62 554.264L1238.68 552.648ZM1265.35 558.336L1260.12 561.091L1251.99 545.646L1257.33 542.836C1258.86 542.028 1260.34 541.644 1261.77 541.683C1263.19 541.714 1264.51 542.149 1265.71 542.988C1266.91 543.827 1267.93 545.049 1268.77 546.652C1269.62 548.261 1270.05 549.801 1270.06 551.273C1270.08 552.741 1269.69 554.08 1268.89 555.289C1268.1 556.495 1266.92 557.511 1265.35 558.336ZM1261.64 557.198L1263.94 555.987C1265.02 555.421 1265.81 554.752 1266.32 553.981C1266.83 553.206 1267.06 552.33 1267.01 551.356C1266.96 550.376 1266.62 549.295 1266 548.113C1265.38 546.932 1264.68 546.047 1263.91 545.458C1263.13 544.864 1262.29 544.56 1261.38 544.546C1260.47 544.525 1259.49 544.789 1258.44 545.34L1256.06 546.594L1261.64 557.198Z" fill="black"/>
<path id="L" d="M401.5 314V290.727H407.818V308.909H417.227V314H401.5Z" fill="black"/>
<path id="A" d="M407.545 405H400.727L408.409 381.727H417.045L424.727 405H417.909L412.818 388.136H412.636L407.545 405ZM406.273 395.818H419.091V400.545H406.273V395.818Z" fill="black"/>
<path id="M" d="M508.5 340.727H516.364L521.773 353.909H522.045L527.455 340.727H535.318V364H529.136V350.545H528.955L523.773 363.818H520.045L514.864 350.455H514.682V364H508.5V340.727Z" fill="black"/>
<path id="N" d="M618.636 340.727V364H613.364L604.955 351.773H604.818V364H598.5V340.727H603.864L612.136 352.909H612.318V340.727H618.636Z" fill="black"/>
<path id="O" d="M719.045 275.364C719.045 277.955 718.542 280.14 717.534 281.92C716.527 283.693 715.167 285.038 713.455 285.955C711.742 286.864 709.833 287.318 707.727 287.318C705.606 287.318 703.689 286.86 701.977 285.943C700.273 285.019 698.917 283.67 697.909 281.898C696.909 280.117 696.409 277.939 696.409 275.364C696.409 272.773 696.909 270.591 697.909 268.818C698.917 267.038 700.273 265.693 701.977 264.784C703.689 263.867 705.606 263.409 707.727 263.409C709.833 263.409 711.742 263.867 713.455 264.784C715.167 265.693 716.527 267.038 717.534 268.818C718.542 270.591 719.045 272.773 719.045 275.364ZM712.545 275.364C712.545 273.97 712.36 272.795 711.989 271.841C711.625 270.879 711.083 270.152 710.364 269.659C709.652 269.159 708.773 268.909 707.727 268.909C706.682 268.909 705.799 269.159 705.08 269.659C704.367 270.152 703.826 270.879 703.455 271.841C703.091 272.795 702.909 273.97 702.909 275.364C702.909 276.758 703.091 277.936 703.455 278.898C703.826 279.852 704.367 280.58 705.08 281.08C705.799 281.572 706.682 281.818 707.727 281.818C708.773 281.818 709.652 281.572 710.364 281.08C711.083 280.58 711.625 279.852 711.989 278.898C712.36 277.936 712.545 276.758 712.545 275.364Z" fill="black"/>
<path id="Z" d="M695.591 431V427.5L706.591 412.818H695.636V407.727H714.636V411.227L703.636 425.909H714.591V431H695.591Z" fill="black"/>
<path id="Y" d="M788.545 409.727H795.591L800.136 419.182H800.318L804.864 409.727H811.909L803.364 425.682V433H797.091V425.682L788.545 409.727Z" fill="black"/>
<path id="X" d="M946.273 407.727L950.091 414.5H950.273L954.136 407.727H961.182L954.227 419.364L961.455 431H954.227L950.273 424.091H950.091L946.136 431H938.955L946.091 419.364L939.182 407.727H946.273Z" fill="black"/>
<path id="W" d="M1030.41 431L1023.55 407.727H1030.59L1033.77 422.045H1033.95L1037.73 407.727H1043.27L1047.05 422.091H1047.23L1050.41 407.727H1057.45L1050.59 431H1044.55L1040.59 418H1040.41L1036.45 431H1030.41Z" fill="black"/>
<path id="V" d="M1187.86 379.727L1192.64 396.136H1192.82L1197.59 379.727H1204.73L1197.05 403H1188.41L1180.73 379.727H1187.86Z" fill="black"/>
<path id="U" d="M1196.27 277.727H1202.59V292.636C1202.59 294.409 1202.17 295.943 1201.32 297.239C1200.48 298.527 1199.3 299.523 1197.8 300.227C1196.29 300.924 1194.54 301.273 1192.55 301.273C1190.54 301.273 1188.78 300.924 1187.27 300.227C1185.77 299.523 1184.59 298.527 1183.75 297.239C1182.92 295.943 1182.5 294.409 1182.5 292.636V277.727H1188.82V292.091C1188.82 292.811 1188.98 293.455 1189.3 294.023C1189.61 294.583 1190.05 295.023 1190.61 295.341C1191.18 295.659 1191.83 295.818 1192.55 295.818C1193.27 295.818 1193.92 295.659 1194.48 295.341C1195.04 295.023 1195.48 294.583 1195.8 294.023C1196.11 293.455 1196.27 292.811 1196.27 292.091V277.727Z" fill="black"/>
<path id="T" d="M1180.86 196.818V191.727H1201.09V196.818H1194.09V215H1187.86V196.818H1180.86Z" fill="black"/>
<path id="S" d="M1076.05 199C1075.98 198.242 1075.7 197.652 1075.19 197.227C1074.69 196.803 1073.93 196.591 1072.91 196.591C1072.26 196.591 1071.72 196.67 1071.31 196.83C1070.9 196.981 1070.59 197.189 1070.4 197.455C1070.2 197.72 1070.1 198.023 1070.09 198.364C1070.08 198.644 1070.13 198.898 1070.24 199.125C1070.36 199.345 1070.55 199.545 1070.81 199.727C1071.06 199.902 1071.39 200.061 1071.8 200.205C1072.2 200.348 1072.67 200.477 1073.23 200.591L1075.14 201C1076.42 201.273 1077.53 201.633 1078.44 202.08C1079.36 202.527 1080.11 203.053 1080.69 203.659C1081.28 204.258 1081.7 204.932 1081.98 205.682C1082.26 206.432 1082.4 207.25 1082.41 208.136C1082.4 209.667 1082.02 210.962 1081.26 212.023C1080.5 213.083 1079.42 213.89 1078.01 214.443C1076.61 214.996 1074.92 215.273 1072.95 215.273C1070.93 215.273 1069.17 214.973 1067.66 214.375C1066.16 213.777 1064.99 212.856 1064.16 211.614C1063.33 210.364 1062.92 208.765 1062.91 206.818H1068.91C1068.95 207.53 1069.13 208.129 1069.44 208.614C1069.76 209.098 1070.21 209.466 1070.78 209.716C1071.37 209.966 1072.06 210.091 1072.86 210.091C1073.54 210.091 1074.1 210.008 1074.56 209.841C1075.01 209.674 1075.36 209.443 1075.59 209.148C1075.83 208.852 1075.95 208.515 1075.95 208.136C1075.95 207.78 1075.83 207.47 1075.6 207.205C1075.38 206.932 1075.02 206.689 1074.51 206.477C1074 206.258 1073.32 206.053 1072.45 205.864L1070.14 205.364C1068.08 204.917 1066.45 204.17 1065.26 203.125C1064.08 202.072 1063.49 200.636 1063.5 198.818C1063.49 197.341 1063.89 196.049 1064.68 194.943C1065.48 193.83 1066.59 192.962 1068.01 192.341C1069.44 191.72 1071.07 191.409 1072.91 191.409C1074.79 191.409 1076.41 191.723 1077.78 192.352C1079.16 192.981 1080.21 193.867 1080.95 195.011C1081.7 196.148 1082.08 197.477 1082.09 199H1076.05Z" fill="black"/>
<path id="P" d="M790.5 286V262.727H800.545C802.273 262.727 803.784 263.068 805.08 263.75C806.375 264.432 807.383 265.39 808.102 266.625C808.822 267.86 809.182 269.303 809.182 270.955C809.182 272.621 808.811 274.064 808.068 275.284C807.333 276.504 806.299 277.443 804.966 278.102C803.64 278.761 802.091 279.091 800.318 279.091H794.318V274.182H799.045C799.788 274.182 800.42 274.053 800.943 273.795C801.473 273.53 801.879 273.155 802.159 272.67C802.447 272.186 802.591 271.614 802.591 270.955C802.591 270.288 802.447 269.72 802.159 269.25C801.879 268.773 801.473 268.409 800.943 268.159C800.42 267.902 799.788 267.773 799.045 267.773H796.818V286H790.5Z" fill="black"/>
<path id="Q" d="M893.5 277.364H898.409L900.182 279.591L903.182 283L907.091 287.727H901.5L898.727 284.5L896.864 281.818L893.5 277.364ZM907.045 274.364C907.045 276.955 906.542 279.14 905.534 280.92C904.527 282.693 903.167 284.038 901.455 284.955C899.742 285.864 897.833 286.318 895.727 286.318C893.606 286.318 891.689 285.86 889.977 284.943C888.273 284.019 886.917 282.67 885.909 280.898C884.909 279.117 884.409 276.939 884.409 274.364C884.409 271.773 884.909 269.591 885.909 267.818C886.917 266.038 888.273 264.693 889.977 263.784C891.689 262.867 893.606 262.409 895.727 262.409C897.833 262.409 899.742 262.867 901.455 263.784C903.167 264.693 904.527 266.038 905.534 267.818C906.542 269.591 907.045 271.773 907.045 274.364ZM900.545 274.364C900.545 272.97 900.36 271.795 899.989 270.841C899.625 269.879 899.083 269.152 898.364 268.659C897.652 268.159 896.773 267.909 895.727 267.909C894.682 267.909 893.799 268.159 893.08 268.659C892.367 269.152 891.826 269.879 891.455 270.841C891.091 271.795 890.909 272.97 890.909 274.364C890.909 275.758 891.091 276.936 891.455 277.898C891.826 278.852 892.367 279.58 893.08 280.08C893.799 280.572 894.682 280.818 895.727 280.818C896.773 280.818 897.652 280.572 898.364 280.08C899.083 279.58 899.625 278.852 899.989 277.898C900.36 276.936 900.545 275.758 900.545 274.364Z" fill="black"/>
<path id="R" d="M986.5 286V262.727H996.545C998.273 262.727 999.784 263.042 1001.08 263.67C1002.38 264.299 1003.38 265.205 1004.1 266.386C1004.82 267.568 1005.18 268.985 1005.18 270.636C1005.18 272.303 1004.81 273.708 1004.07 274.852C1003.33 275.996 1002.3 276.86 1000.97 277.443C999.64 278.027 998.091 278.318 996.318 278.318H990.318V273.409H995.045C995.788 273.409 996.42 273.318 996.943 273.136C997.473 272.947 997.879 272.648 998.159 272.239C998.447 271.83 998.591 271.295 998.591 270.636C998.591 269.97 998.447 269.428 998.159 269.011C997.879 268.587 997.473 268.277 996.943 268.08C996.42 267.875 995.788 267.773 995.045 267.773H992.818V286H986.5ZM1000.14 275.318L1005.95 286H999.091L993.409 275.318H1000.14Z" fill="black"/>
<path id="B" d="M268.5 451V427.727H278.591C280.364 427.727 281.852 427.966 283.057 428.443C284.269 428.92 285.182 429.595 285.795 430.466C286.417 431.337 286.727 432.364 286.727 433.545C286.727 434.402 286.538 435.182 286.159 435.886C285.788 436.591 285.265 437.182 284.591 437.659C283.917 438.129 283.129 438.455 282.227 438.636V438.864C283.227 438.902 284.136 439.155 284.955 439.625C285.773 440.087 286.424 440.727 286.909 441.545C287.394 442.356 287.636 443.311 287.636 444.409C287.636 445.682 287.303 446.814 286.636 447.807C285.977 448.799 285.038 449.58 283.818 450.148C282.598 450.716 281.144 451 279.455 451H268.5ZM274.818 445.955H277.773C278.833 445.955 279.629 445.758 280.159 445.364C280.689 444.962 280.955 444.371 280.955 443.591C280.955 443.045 280.83 442.583 280.58 442.205C280.33 441.826 279.973 441.538 279.511 441.341C279.057 441.144 278.508 441.045 277.864 441.045H274.818V445.955ZM274.818 437.136H277.409C277.962 437.136 278.451 437.049 278.875 436.875C279.299 436.701 279.629 436.451 279.864 436.125C280.106 435.792 280.227 435.386 280.227 434.909C280.227 434.189 279.97 433.64 279.455 433.261C278.939 432.875 278.288 432.682 277.5 432.682H274.818V437.136Z" fill="black"/>
</g>
<g id="Group 1">
<path id="Vector 41" d="M0 40.5H1377" stroke="black" stroke-width="2"/>
<path id="Vector 42" d="M1 668H995L1372 473" stroke="black" stroke-width="2"/>
<path id="Vector 5" d="M197.5 203.5V511H182.5V619" stroke="black" stroke-width="2"/>
<path id="Vector 40" d="M801 496.5H944.5" stroke="black" stroke-width="2"/>
<path id="Vector 29" d="M1108 342V380.5H1067.5V474" stroke="black" stroke-width="2"/>
<path id="Vector 30" d="M1009.5 362.5V475.5" stroke="black" stroke-width="2"/>
<path id="Vector 31" d="M872.5 362.5V473" stroke="black" stroke-width="2"/>
<path id="Vector 32" d="M829 362V398H914V362" stroke="black" stroke-width="2"/>
<path id="Vector 33" d="M739 361.5V488.5" stroke="black" stroke-width="2"/>
<path id="Vector 34" d="M1293 406L1305 422.5L1279.5 465.5H1257" stroke="black" stroke-width="2"/>
<path id="Vector 35" d="M49 273V458.5" stroke="black" stroke-width="2"/>
<path id="Vector 36" d="M132 69H294" stroke="black" stroke-width="2"/>
<path id="Vector 37" d="M129 643H294.5" stroke="black" stroke-width="2"/>
<path id="Vector 38" d="M258.5 363.5V398" stroke="black" stroke-width="2"/>
<path id="Vector 39" d="M300.5 362.5V398" stroke="black" stroke-width="2"/>
<path id="Vector 6" d="M50.5 218H164V236H198" stroke="black" stroke-width="2"/>
<path id="Vector 7" d="M76 311L198 310.996" stroke="black" stroke-width="2"/>
<path id="Vector 8" d="M76 400L197 400" stroke="black" stroke-width="2"/>
<path id="Vector 9" d="M52.5 496.5H164V477.5H198" stroke="black" stroke-width="2"/>
<path id="Vector 10" d="M198.5 511H217.5V362.5H471V449" stroke="black" stroke-width="2"/>
<path id="Vector 11" d="M465 344.5V363" stroke="black" stroke-width="2"/>
<path id="Vector 12" d="M217.5 399H344.5V363.5" stroke="black" stroke-width="2"/>
<path id="Vector 13" d="M318.5 400V412H381V450" stroke="black" stroke-width="2"/>
<path id="Vector 3" d="M217 298H231V306.5H315.5V294.5H376V258" stroke="black" stroke-width="2"/>
<path id="Vector 1" d="M183 91V202.5H217V344.5H465V332H471V257.5" stroke="black" stroke-width="2"/>
<path id="Vector 2" d="M217.5 221H246.5V234.5H339.5" stroke="black" stroke-width="2"/>
<path id="Vector 4" d="M314.5 306.5H344V343.5" stroke="black" stroke-width="2"/>
<path id="Vector 48" d="M872.5 473.5V496.5" stroke="black" stroke-width="2"/>
<path id="Vector 22" d="M1249.5 140.5L1298 233" stroke="black" stroke-width="2"/>
<path id="Vector 46" d="M49 384H74.5" stroke="black" stroke-width="2"/>
<path id="Vector 45" d="M49 331H74.5" stroke="black" stroke-width="2"/>
<path id="Vector 23" d="M841.5 213V313.5H835V323H826V344" stroke="black" stroke-width="2"/>
<path id="Vector 24" d="M842 313.5H907V323H916V344" stroke="black" stroke-width="2"/>
<path id="Vector 25" d="M938.5 214.5V299.5H963V343.5" stroke="black" stroke-width="2"/>
<path id="Vector 26" d="M1035.5 196.5V344" stroke="black" stroke-width="2"/>
<path id="Vector 27" d="M1008.5 212.5L1062 344" stroke="black" stroke-width="2"/>
<path id="Vector 47" d="M182.5 620.5V643" stroke="black" stroke-width="2"/>
<path id="Vector 28" d="M1086.5 171L1131.5 254L1102.5 269.5L1110.5 284.5L1100.5 289.5L1116 319" stroke="black" stroke-width="2"/>
<path id="Vector 14" d="M217.5 493.5H246V476.5H294H341.5" stroke="black" stroke-width="2"/>
<path id="Vector 15" d="M566.5 257.5V450" stroke="black" stroke-width="2"/>
<path id="Vector 16" d="M646.5 234V308H685V361.5H1071.5L1150.5 317.5L1168 346H1205L1303 294.5" stroke="black" stroke-width="2"/>
<path id="Vector 17" d="M646.5 448.5V361.5H693.5" stroke="black" stroke-width="2"/>
<path id="Vector 18" d="M668.5 309V330.5H685" stroke="black" stroke-width="2"/>
<path id="Vector 19" d="M765.5 200V296.5H739.5V345.5" stroke="black" stroke-width="2"/>
<path id="Vector 44" d="M183 92.5V69.5" stroke="black" stroke-width="2"/>
<path id="Vector 20" d="M686 344.5H1069.5L1143.5 304.5" stroke="black" stroke-width="2"/>
<path id="Vector 21" d="M1255 199L1196.5 230L1201 239.5L1128 276L1143 305.5" stroke="black" stroke-width="2"/>
<path id="Vector 43" d="M1141 301.5L1154.5 324" stroke="black" stroke-width="2"/>
<path id="Vector 49" d="M830.5 398H787.5V362" stroke="black" stroke-width="2"/>
<path id="OUTSIDE WALL" d="M132.5 70.5H75V165H50.5V271H75V442H50.5V548.5H75V641.5H132.5V620.5H276.5V641.5H339.5V478H369L382.5 464.5V450.5H645V461L655.5 474.5H737.5V495H800V474.5H943V495H1011V474.5H1192.5V490.5H1256V424.5L1339.5 378.5L1298 299L1325 284.5L1294 228.5L1277.5 238L1233.5 157L1251.5 147L1224 97.5L1006.5 212H843V200H645V233H607.5L598 246V256H377.5V246L362.5 233H339.5V70.5H276.5V90.5H132.5V70.5Z" stroke="black" stroke-width="5"/>
</g>
<g id="INVISIBLE">
<path id="apt-V" opacity="0.01" d="M1194 472H1068V379H1109V340.5L1151 319L1167 345H1206L1298 298L1340 379L1292.5 406L1304.5 423L1292.5 444L1279.5 465.5H1254.5V491.5H1194V472Z" />
<path id="apt-U" opacity="0.01" d="M1166 345.5L1131 278L1199 239L1196 232.5L1252 200L1274.5 239L1293.5 228.5L1324 284L1204.5 345.5H1166Z" />
<path id="apt-T" opacity="0.01" d="M1224 101L1087.5 172.5L1130.5 253.5L1104 270L1111 285L1100 291.5L1115.5 319L1143.5 304.5L1130.5 277.5L1200 239L1196.5 231L1251 201.5L1232.5 161L1251 149L1224 101Z" />
<path id="apt-S" opacity="0.01" d="M1036 273.5V198L1087 173.5L1131 253.5L1103 269.5L1111.5 284.5L1100 292L1115.5 319L1063.5 346.5L1036 273.5Z" />
<path id="apt-R" opacity="0.01" d="M1007 212.5H938.5V300.5H963V345.5H1033.5V274L1007 212.5Z" />
<path id="apt-Q" opacity="0.01" d="M938 212H842.5V314.5H907.5V324.5H915.5V345H963V300.5H938V212Z" />
<path id="apt-W" opacity="0.01" d="M1070.5 361H1009.5V472.5H1068.5V381H1109V340.5L1070.5 361Z" />
<path id="apt-X" opacity="0.01" d="M1009 363H915V398.5H872.5V473.5V496H942H1009V363Z" />
<path id="apt-Y" opacity="0.01" d="M787 363H740.5V495.5H801H871.5V473V398.5H827H787V363Z" />
<path id="apt-Z" opacity="0.01" d="M740 360.5H645V461.5L657.5 475.5H740V360.5Z" />
<path id="apt-P" opacity="0.01" d="M842 198H767V297.5H737.5V346H826V322H835V312.5H842V198Z" />
<path id="apt-O" opacity="0.01" d="M645 198V230.5V307.5H667.5H684V329V345H737.5V297H766.5V198H645Z" />
<path id="apt-N" opacity="0.01" d="M597.5 256.5H567.5V451H645V360H684V329H668V307H645V231.5H611L597.5 242V256.5Z" />
<path id="apt-M" opacity="0.01" d="M567.5 256.5H471.5V333.5H464.5V361H471.5V450.5H567.5V256.5Z" />
<path id="apt-K" opacity="0.01" d="M217 297.5V220.5H246.5V234H362L376 245V293H316V307.5H231V297.5H217Z" />
<path id="apt-L" opacity="0.01" d="M471 333.5V256H376V293H315.5V308.5H343V345.5H464.5V333.5H471Z" />
<path id="apt-A" opacity="0.01" d="M344 396.5V360.5H471V451.5H382.5V413.5H320V396.5H344Z" />
<path id="apt-B" opacity="0.01" d="M217 492.5L216 397H320V413.5H382.5V462.5L367.5 478.5H246V492.5H217Z"/>
<path id="apt-C" opacity="0.01" d="M182.5 643V620V509.5H216.5V492.5H246V478H338V643H275H182.5Z"/>
<path id="apt-D" opacity="0.01" d="M51.5 546.5V495.5H164V477.5H197V511H182.5V620.5V642.5H134H75V546.5H51.5Z" />
<path id="apt-E" opacity="0.01" d="M49 441.5V400.5V383.5H74V400.5H197V478H163.5V495.5H49V454V441.5Z" />
<path id="apt-F" opacity="0.01" d="M196.5 400H74V384H48.5V354.5V331H74V311.5H196.5V400Z" />
<path id="apt-G" opacity="0.01" d="M49.5 272V218.5H164V236H197.5V311.5H73.5V330.5H49.5V272Z" />
<path id="apt-H" opacity="0.01" d="M76.6675 70H134.468H183.3V89.5V203H197.75V236H163.867V218H52.75V163.5H76.6675V70Z" />
<path id="apt-J" opacity="0.01" d="M339.5 70H277.5H184V89.5V203H198H217V221H246.5V235H339.5V70Z" />
</g>
</g>
</svg>
